<?xml version="1.0" encoding="utf-8"?>
<!-- Generator: Adobe Illustrator 24.3.0, SVG Export Plug-In . SVG Version: 6.00 Build 0)  -->
<svg version="1.1" id="Layer_1" xmlns="http://www.w3.org/2000/svg" xmlns:xlink="http://www.w3.org/1999/xlink" x="0px" y="0px"
	 viewBox="0 0 200 200" style="enable-background:new 0 0 200 200;" xml:space="preserve">
<circle style="fill:none;stroke:#000000;stroke-width:5.5203;stroke-miterlimit:10;" cx="76.84" cy="61.11" r="50.15"/>
<path style="fill:none;stroke:#000000;stroke-width:4.5374;stroke-miterlimit:10;" d="M83.91,110.76"/>
<path style="fill:none;stroke:#000000;stroke-width:5.5203;stroke-linecap:round;stroke-miterlimit:10;" d="M129.55,90.43
	c25.29,2.57,45.02,23.93,45.02,49.89c0,27.7-22.46,50.15-50.15,50.15s-50.15-22.46-50.15-50.15c0-7.06,1.46-13.78,4.09-19.87"/>
<path d="M106.47,126.38l0,46.15c0,9.74,8.2,17.95,17.95,17.95s17.95-8.2,17.95-17.95v-46.15c0-9.74-8.2-17.95-17.95-17.95
	C114.68,108.43,106.47,116.64,106.47,126.38z M137.24,126.38v23.08h-20.51l0,23.08c0,5.64,3.08,10.26,6.15,12.82
	c-6.15-1.03-11.28-6.15-11.28-12.82l0-46.15c0-7.18,5.64-12.82,12.82-12.82S137.24,119.2,137.24,126.38z"/>
<path d="M58.89,46.66l0,46.15c0,9.74,8.2,17.95,17.95,17.95c9.74,0,17.95-8.2,17.95-17.95l0-46.15c0-9.74-8.2-17.95-17.95-17.95
	S58.89,36.92,58.89,46.66z M89.66,46.66l0,23.08l-20.51,0l0,23.08c0,5.64,3.08,10.26,6.15,12.82c-6.15-1.03-11.28-6.15-11.28-12.82
	l0-46.15c0-7.18,5.64-12.82,12.82-12.82C84.02,33.84,89.66,39.48,89.66,46.66z"/>
<g>
	<path style="fill:none;stroke:#000000;stroke-width:5.5203;stroke-linecap:round;stroke-miterlimit:10;" d="M80.15,188.21
		c-6.2,5.45-13.26,8.85-20.95,8.85c-27.7,0-39.2-17.49-39.2-45.18c0-0.46-0.03-7.67-0.02-8.13"/>
	
		<polyline style="fill:none;stroke:#000000;stroke-width:5.5203;stroke-linecap:round;stroke-linejoin:round;stroke-miterlimit:10;" points="
		34.31,143.75 40.56,143.75 51.15,143.75 39.2,124.41 27.24,105.08 15.29,124.41 3.34,143.75 19.98,143.75 	"/>
	<path d="M34.16,163.01L34.16,163.01c1.81,0,3.28-1.47,3.28-3.28v-15c0-1.81-1.47-3.28-3.28-3.28h0c-1.81,0-3.28,1.47-3.28,3.28v15
		C30.88,161.55,32.34,163.01,34.16,163.01z"/>
	<path d="M36.54,176.33L36.54,176.33c-1.97,0-3.58-1.61-3.58-3.58v0c0-1.97,1.61-3.58,3.58-3.58h0c1.97,0,3.58,1.61,3.58,3.58v0
		C40.12,174.72,38.51,176.33,36.54,176.33z"/>
</g>
<g>
	<path style="fill:none;stroke:#000000;stroke-width:5.5203;stroke-linecap:round;stroke-miterlimit:10;" d="M120.15,13.09
		c6.2-5.45,13.26-8.85,20.95-8.85c27.7,0,39.2,17.49,39.2,45.18c0,0.46,0.03,7.67,0.02,8.13"/>
	
		<polyline style="fill:none;stroke:#000000;stroke-width:5.5203;stroke-linecap:round;stroke-linejoin:round;stroke-miterlimit:10;" points="
		165.99,57.55 159.74,57.55 149.15,57.55 161.11,76.89 173.06,96.22 185.01,76.89 196.97,57.55 180.32,57.55 	"/>
	<path d="M166.15,38.29L166.15,38.29c-1.81,0-3.28,1.47-3.28,3.28v15c0,1.81,1.47,3.28,3.28,3.28l0,0c1.81,0,3.28-1.47,3.28-3.28
		v-15C169.43,39.75,167.96,38.29,166.15,38.29z"/>
	<path d="M163.76,24.97L163.76,24.97c1.97,0,3.58,1.61,3.58,3.58v0c0,1.97-1.61,3.58-3.58,3.58h0c-1.97,0-3.58-1.61-3.58-3.58v0
		C160.18,26.58,161.79,24.97,163.76,24.97z"/>
</g>
</svg>
